<svg width="64" height="76" viewBox="0 0 64 76" fill="none" xmlns="http://www.w3.org/2000/svg"><path d="M51.935 75.38c.923-2.32 3.037-7.84 3.371-9.52.816-1.946.763-17.466.214-18.933 0 0 6.516-2.813 4.067-9.52-2.006-4.813-9.365-5.88-7.733-12.734 1.057-3.493 4.027-6.253 5.379-7.466l5.726-5L52.911 6.42S42.49 9.5 41.512 12.313c-2.114 1.494-6.301.974-6.301.974s-1.58-6.707-.924-8.6c.241-.707-2.716 6.76-2.716 6.76l1.245 7.893-3.8 3.68.656 7.2-5.392 1.48-1.753 3.933s-3.612 1.187-6.154 1.734c0 0 12.924 11.36 9.994 31.693 0-.013 6.944 3.88 25.568 6.32z" fill="#F8F9F9" stroke="#646464" stroke-width=".5" stroke-miterlimit="10"/><path d="M48.83 44.22s2.503 3.574 6.677 2.707M24.24 31.86s2.863 2.654 3.652 7.093c1.004 4.6 4.175 6.6 7.105 7.187 2.354.4 5.351 1.147 8.63-1.133 2.769-2.173 2.528-4.053 2.688-6.334m7.52 19.174c-4.456-6.333-12.978 7.147-13.46 12.44" stroke="#646464" stroke-width=".5" stroke-miterlimit="10"/><path d="M37.298 36.273s1.351 1.627 2.957 1.08c1.244-.493.709-1.626.709-1.626m15.694 1.613s1.672 1.134 2.528.36c.428-.413.027-1.08.027-1.08" stroke="#646464" stroke-width=".5" stroke-miterlimit="10"/><path d="M22.888 28.594l-4.174 14.493 10.088-7.227-5.914-7.266zM9.429 16.793l3.037 8.987 12.215 2.747L9.43 16.793z" fill="#F7F7F7" stroke="#646464" stroke-width=".5" stroke-miterlimit="10"/><path d="M16.6 43.847l1.298-11.587-12.697-4.533 11.4 16.12z" fill="#F9F9F9" stroke="#646464" stroke-width=".5" stroke-miterlimit="10"/><path d="M32.802 40.487l7.399-7.547-12.536-4.213 5.137 11.76zm-22.637-31l-.816 6.226 13.673-.786-12.857-5.44zm16.202 9.826L22.541 24.1l11.318 4.627-7.492-9.414zm-13.847-2.44l8.308 6.814 3.425-5.68-11.733-1.134zM3.636 11.98L1 22.474l8.95 4.76L3.637 11.98zm3.024 2.6l1.337-6.747-4.95-4.346L6.659 14.58zM30.354 4.54l-2.69 9.573 5.62-.813-2.93-8.76zm2.689 21.093L34.1 18.42l-9.205-3.893 8.148 11.106zM12.68 3.9L2.204.7l6.57 5.893L12.68 3.9zm8.884 6.32l4.723 1.053 2.515-7.466-7.238 6.413zM10.9 8.06l10.664 3.947-5.379-7.134-5.284 3.187z" fill="#F7F7F7" stroke="#646464" stroke-width=".5" stroke-miterlimit="10"/></svg>