<svg width="66" height="75" viewBox="0 0 66 75" fill="none" xmlns="http://www.w3.org/2000/svg"><path d="M48.22 25.699l5.086 9.31-9.06-1.579" fill="#F8F9F9"/><path d="M48.22 25.699l5.086 9.31-9.06-1.579" stroke="#646464" stroke-width=".5" stroke-miterlimit="10"/><path d="M48.73 21.566c.281.99-.927 2.836-.927 2.836s-.067 3.063.215 3.156c.282.094 2.43 2.89 2.966 4.12.524 1.23.873 2.782.873 2.782s-7.248-5.43-8.026-6.046c-.779-.615-1.826-1.417-3.208-1.992-1.383-.589-9.73-1.78-9.73-1.78-.766-.093-3.45.522-3.813.522-.362 0-1.422.615-1.785.736-.375.12-1.677.027-1.892.107-.215.08-.644.374-.309.923.336.548.738.843 1.906.963s4.483-2.02 3.02-1.177c-1.852 1.056-4.738 3.37-4.738 3.37s-2.966 3.411-3.154 3.732c-.201.321.094.843.242 1.07.147.228 1.167-.04 1.463-.24.295-.201 2.724-2.89 2.724-2.89l4.805-2.808s-2.792 2.18-3.18 2.367c-.39.187-1.544 1.07-1.544 1.07s-2.269 2.26-2.55 2.475c-.282.214-1.007 1.136-1.208 1.47-.202.335-.188.723-.121 1.258s.644.375.819.428c.174.067.738-.187.738-.187-.134.548.282.762.55.95.268.187 1.047-.027 1.047-.027l1.355-.736c-.107.348.014.79.108.91s.993-.067 1.235-.094c.241-.027 4.107-2.461 5.02-2.822.925-.375 2.737-1.017 3.422-1.164.684-.147 2.778-1.324 2.778-1.324a2.614 2.614 0 012.456.963l11.234 11.41c.712.896 3.49 3.036 3.49 3.036s6.872 3.477 7.154 3.531c.281.067 1.476-.401 1.637-1.351.148-.95 1.114-1.9 1.262-2.702.147-.802-.188-2.207-.188-2.207-2.242-6.955-9.946-27.607-13.556-34.55-.443-.842-2.188-1.818-3.047-2.086-.859-.28-2.375-.24-3.61.067-1.235.308-2.282.923-3.181 1.23-.9.308-2.872-.066-4.711-.28-1.852-.214-2.9-1.23-3.544-2.18-.536-.83-.858-2.355-.858-2.355l-1.973 3.585-5.49.615-2.59 5.524-5.798 2.034-2.215 6.019s-6.603 2.367-6.63 2.367c0 0 1.047 2.956 1.114 3.344.067.401 1.664 5.926 3.261 7.798.175 1.097.483 3.986.792 6.982l.04.442 3.758 8.306-3.825 5.845-1.422 5.47s-.51.349-1.222.817c6.107 3.745 23.112 10.566 33.353 9.256 0 0-.336-5.39-.617-6.822-.282-1.431-.094-4.44.832-7.357.577-1.886.322-2.675 1.825-6.447.993-1.698 1.731-7.356 1.825-9.256 0 0 .806-.374 1.812-.99" fill="#F9F9FA"/><path d="M48.73 21.566c.281.99-.927 2.836-.927 2.836s-.067 3.063.215 3.156c.282.094 2.43 2.89 2.966 4.12.524 1.23.873 2.782.873 2.782s-7.248-5.43-8.026-6.046c-.779-.615-1.826-1.417-3.208-1.992-1.383-.589-9.73-1.78-9.73-1.78-.766-.093-3.45.522-3.813.522-.362 0-1.422.615-1.785.736-.375.12-1.677.027-1.892.107-.215.08-.644.374-.309.923.336.548.738.843 1.906.963s4.483-2.02 3.02-1.177c-1.852 1.056-4.738 3.37-4.738 3.37s-2.966 3.411-3.154 3.732c-.201.321.094.843.242 1.07.147.228 1.167-.04 1.463-.24.295-.201 2.724-2.89 2.724-2.89l4.805-2.808s-2.792 2.18-3.18 2.367c-.39.187-1.544 1.07-1.544 1.07s-2.269 2.26-2.55 2.475c-.282.214-1.007 1.136-1.208 1.47-.202.335-.188.723-.121 1.258s.644.375.819.428c.174.067.738-.187.738-.187-.134.548.282.762.55.95.268.187 1.047-.027 1.047-.027l1.355-.736c-.107.348.014.79.108.91s.993-.067 1.235-.094c.241-.027 4.107-2.461 5.02-2.822.925-.375 2.737-1.017 3.422-1.164.684-.147 2.778-1.324 2.778-1.324a2.614 2.614 0 012.456.963l11.234 11.41c.712.896 3.49 3.036 3.49 3.036s6.872 3.477 7.154 3.531c.281.067 1.476-.401 1.637-1.351.148-.95 1.114-1.9 1.262-2.702.147-.802-.188-2.207-.188-2.207-2.242-6.955-9.946-27.607-13.556-34.55-.443-.842-2.188-1.818-3.047-2.086-.859-.28-2.375-.24-3.61.067-1.235.308-2.282.923-3.181 1.23-.9.308-2.872-.066-4.711-.28-1.852-.214-2.9-1.23-3.544-2.18-.536-.83-.858-2.355-.858-2.355l-1.973 3.585-5.49.615-2.59 5.524-5.798 2.034-2.215 6.019s-6.603 2.367-6.63 2.367c0 0 1.047 2.956 1.114 3.344.067.401 1.664 5.926 3.261 7.798.175 1.097.483 3.986.792 6.982l.04.442 3.758 8.306-3.825 5.845-1.422 5.47s-.51.349-1.222.817c6.107 3.745 23.112 10.566 33.353 9.256 0 0-.336-5.39-.617-6.822-.282-1.431-.094-4.44.832-7.357.577-1.886.322-2.675 1.825-6.447.993-1.698 1.731-7.356 1.825-9.256 0 0 .806-.374 1.812-.99" stroke="#646464" stroke-width=".5" stroke-miterlimit="10"/><path d="M37.777 34.567s.578 8.534-7.395 8.761c-6.885.094-9.207-3.13-10.08-4.146-1.409-1.78-3.154-5.244-4.026-8.828" stroke="#646464" stroke-width=".5" stroke-miterlimit="10"/><path d="M36.744 39.623s1.812 3.384 5.905 4.869a7.255 7.255 0 004.738.08m-25.031-6.728l4.295-3.945s1.637-1.338 3.584-2.488m-4.913 6.62l3.933-3.196s1.892-1.351 3.127-1.78" stroke="#646464" stroke-width=".5" stroke-miterlimit="10"/><path d="M35.415 64.984c-.644.4-1.422 3.558-.738 3.504.55-.361 0-1.806.738-3.504z" fill="#FBFBFB" stroke="#646464" stroke-width=".5" stroke-miterlimit="10"/><path d="M9.619 49.414L8.142 62.35l5.732 4.36-4.255-17.295zm7.503-8.132l-4.9 6.327 7.651 7.985-2.751-14.312zm-7.49-22.605l2.349 9.47 9.26-3.157-11.609-6.313zm8.416 38.121l-6.376-7.49 2.577 12.786 3.799-5.296zm-6.886-9.992l.537-12.44 3.49 7.691-4.027 4.749zm14.254-31.807l-5.1-9.725-4.926 2.14L25.416 15zm-9.623 2.113l-2-9.176 6.805 5.337-4.805 3.839zm3.007-1.016l9.998 1.899-8.12 4.307-1.879-6.206zm-5.249 2.956l-5.825-7.183 4.751-6.795 1.074 13.978zm7.289-17.75L32.1 6.987l-2.335 7.557-8.926-13.242zM1.7 3.134l1.342 13.282L6.505 7.87 1.7 3.134zm8.147 20.331L6.263 11.521 4.116 20.43l5.731 3.037zM6.33 38.78l1.933 13.015 1.826-8.6L6.33 38.78zM3.499 22.837L8.96 39.088l.282-14.486L3.5 22.837zM1.726.7l4.765 5.404 6.483-2.435L1.726.7z" fill="#F7F7F7" stroke="#646464" stroke-width=".5" stroke-miterlimit="10"/></svg>