<svg viewBox="0 0 51 50" fill="none" xmlns="http://www.w3.org/2000/svg"><path fill-rule="evenodd" clip-rule="evenodd" d="M38.207 30.497c0 4.079-3.331 7.409-7.434 7.409H19.83c-4.104 0-7.436-3.332-7.436-7.384v-11.02c0-4.078 3.33-7.408 7.436-7.408h10.943c4.104 0 7.434 3.33 7.434 7.408v10.995zM25.302 18.29a6.71 6.71 0 00-6.71 6.71 6.714 6.714 0 006.71 6.712A6.715 6.715 0 0032.014 25c0-3.709-3.01-6.71-6.713-6.71zm0 11.097A4.384 4.384 0 0120.912 25a4.384 4.384 0 014.39-4.387A4.4 4.4 0 0129.69 25a4.384 4.384 0 01-4.389 4.387zm5.833-12.002c0-.863.685-1.55 1.549-1.55.862 0 1.55.687 1.55 1.55a1.54 1.54 0 01-1.55 1.548 1.538 1.538 0 01-1.55-1.547z" fill="#C28767"/><path d="M1.3 25c0-13.257 10.746-24 24.005-24 13.25 0 24 10.743 24 24 0 13.256-10.75 24-24 24C12.045 49 1.3 38.254 1.3 25z" stroke="#C28767" stroke-width="2"/></svg>