<svg width="63" height="74" viewBox="0 0 63 74" fill="none" xmlns="http://www.w3.org/2000/svg"><path d="M39.288 60.87s-.618 0-1.052.183c-.435.184-3.12 2.894-4.067 5.248-.987 2.432-1.526 6.693-1.526 6.693S13.098 69.746 7.268 63.67c.224-.131 3.54-2.748 3.54-2.748l.566-5.707 4.41-3.499-.672-5.365.803-6.325 21.74.775L39.29 60.87z" fill="#F8F9F9" stroke="#646464" stroke-width=".5" stroke-miterlimit="10"/><path d="M25.773 28.493l.566-7.365 4.619-1.762 1.408-6.904 7.383-.184s1.658-5.103 1.171-8.101c8.107 2.078 13.345 9.495 13.345 9.495s5.422 7.114 6.422 16.386c0 0 .698.828.105 1.63-.592.802-2.395 3.906-2.395 4.156 0 .052 1.264 3.274 1.264 3.274l-.54 7.601s-.658 2.486-.763 2.736c-.105.25-.171 1.104-.066 1.486.105.381.724.933-.04 1.933-.763 1-1.276 1.828-1.276 1.828s.382.592.447 1.275c.066.697-.486 1.105-.697 1.145-.21.039-.803.065-1.21.762-.422.697-1.04 2.012-.725 3.774.316 1.763-1.026 4.077-4.922 3.906-4.948-.21-19.424-9.1-19.424-9.1s-2.474-1.183-4.264-6.404c-.83-2.42-.803-3.985-.803-3.985s-.171-1.25-1-1.144c0 0-.763.381-1.224.381-.46 0-4.54-1.657-5.356-2.288-.935-.723-3.067-2.538-3.633-4.931l-.513-2.21s-.263-.933.158-1.92c.421-.986.882-2.459 1.882-3.432 1-.973 3.014-1.276 3.738-1 2.434.763 3.803 3.222 3.803 3.222l2.54-4.26z" fill="#F7F8F9" stroke="#646464" stroke-width=".5" stroke-miterlimit="10"/><path d="M58.555 31.635c-.145.106-.895 1.21-.658 2.486.237 1.276 2.75 6.786 2.75 6.786.106.184.435.96.948 1.46.514.486.908 1.656.908 1.656s.343 1.079-.487 1.723c-.829.644-.934.986-1.5 1.328-.566.342-1.605.053-1.921.263-.316.21-.566.263-.619.474" fill="#FBFCFD"/><path d="M58.555 31.635c-.145.106-.895 1.21-.658 2.486.237 1.276 2.75 6.786 2.75 6.786.106.184.435.96.948 1.46.514.486.908 1.656.908 1.656s.343 1.079-.487 1.723c-.829.644-.934.986-1.5 1.328-.566.342-1.605.053-1.921.263-.316.21-.566.263-.619.474M54.265 30.82c.987-.131.974-4.997-13.318-.907m2.75 5.05s4.12.315 6.093-.21m-.315.893s-1.461 1.868-5.304 0M58.503 51.48s-.277.053-.566.237c-.29.184-.566-.513-.566-.513s-.184-.263-.671.092c-.487.342-3.12 2.012-6.804 2.104m6.356 3.827s-1.513.21-2.184-.263c-.672-.474-3.58-2.696-4.185-3.564" stroke="#646464" stroke-width=".5" stroke-miterlimit="10"/><path d="M50.225 53.69s1.553.117 2.724.012c.974-.092 1.882.421 1.934.434.053.013 1.264-.67 2.08.487" stroke="#646464" stroke-width=".5" stroke-miterlimit="10"/><path d="M55.173 53.952c-.026-.21.158-.394.158-.394s.329-.303 1.092-.29c-1.026.08-.776.237-1.04.145-.144-.053-.934-.302-1.394-.158-.461.145-.685.237-1.053.447m6.093-6.864s.566-.619-.869-.987c-1.447-.368-3.816.868-3.816.868s-.25.08-.921 0c-.672-.079-.856-.802-.737-1.21" stroke="#646464" stroke-width=".5" stroke-miterlimit="10"/><path d="M30.787 31.596l-14.24-4.353L23.51 37.29l7.278-5.694zM17.403 49.665L8.9 38.711l5.001 19.633 3.5-8.679zM9.007 16.473l2.987 8.863 12.002 2.71-14.99-11.573zm3.579 25.92l2.58-8.68-6.975-7.272 4.395 15.952zm-4.474 2.012l-2.29 12.02 7.554 4.642-5.264-16.662zm31.664-30.852l4.83-7.548-15.267-4.642 10.437 12.19zM9.717 9.266l-.79 6.142 13.45-.776-12.66-5.366zm15.937 9.692l-3.763 4.722 11.133 4.563-7.37-9.285zm-13.607-2.406l8.172 6.72 3.356-5.602-11.528-1.118zM4.466 13.29l-1.974 7.89 7.16 5.05-5.186-12.94zm1.816 1l1.303-6.655-4.87-4.287L6.283 14.29zm23.584-6.181l-2.277 5.97 9.818-.88-7.541-5.09zm-1.053-3.327l-8.857 2.104 6.396 6.746 2.46-8.85zm3.408 20.41l1.053-7.115-9.054-3.84 8.001 10.955zM12.204 3.743L1.9.6l6.462 5.813 3.842-2.67zM13.64 1.1l5.526 4.642 8.857-2.972L13.64 1.1zm-3.199 6.76l10.489 3.892-5.277-7.049-5.212 3.156z" fill="#F7F7F7" stroke="#646464" stroke-width=".5" stroke-miterlimit="10"/></svg>