<svg width="64" height="75" viewBox="0 0 64 75" fill="none" xmlns="http://www.w3.org/2000/svg">
<path d="M44.4426 70.9336C44.6279 69.8387 44.9985 68.1371 45.8059 65.8419C46.0309 64.9845 43.4631 51.9915 43.4631 51.9915C43.4631 51.9915 34.3434 47.256 33.7875 48.4036C33.7213 49.327 33.5095 51.5431 33.5095 51.5431L34.6214 55.5926L33.3374 59.7478L33.536 63.705L31.127 66.3432C34.7934 67.6623 35.5744 68.1767 44.4426 70.9336Z" fill="#F8F9F9" stroke="#646464" stroke-width="0.5" stroke-miterlimit="10"/>
<path d="M63.476 73.7563C63.0921 72.0942 62.523 70.7092 62.3245 69.3242C60.0743 61.159 55.0049 50.9889 53.8798 48.2716C57.8903 39.6976 59.1743 23.895 57.6389 11.7066C57.5197 10.8097 57.3344 9.93906 57.1094 9.12123C50.0678 6.60178 32.0799 5.15079 32.0799 5.15079L31.9608 8.05277L28.612 9.97863L27.5928 13.8567L24.4691 15.3869C24.4691 15.3869 24.3103 15.9277 24.2441 16.2179C22.8013 21.758 21.9278 28.116 25.978 34.6191C30.2533 42.0455 36.1831 52.9148 37.467 54.6164C38.7509 56.318 43.3438 62.4254 46.3881 67.86C47.4206 69.6276 48.1353 70.9071 48.6648 71.9491C53.6283 72.9516 54.118 73.2287 63.476 73.7563Z" fill="#F8F9F9" stroke="#646464" stroke-width="0.5" stroke-miterlimit="10"/>
<path d="M41.3718 22.7474C43.1058 29.2373 50.2665 38.207 53.827 48.2453" stroke="#646464" stroke-width="0.5" stroke-miterlimit="10"/>
<path d="M52.8339 22.7474C52.5163 26.0451 46.0968 30.1079 46.2556 32.8252" stroke="#646464" stroke-width="0.5" stroke-miterlimit="10"/>
<path d="M26.9841 51.8727L29.221 64.5095L35.8656 67.0421L26.9841 51.8727Z" fill="#F7F7F7" stroke="#646464" stroke-width="0.5" stroke-miterlimit="10"/>
<path d="M31.7755 42.085L28.9297 49.4454L38.4068 54.8537L31.7755 42.085Z" fill="#F7F7F7" stroke="#646464" stroke-width="0.5" stroke-miterlimit="10"/>
<path d="M8.79779 16.5476L12.1465 27.2718L21.2398 27.5356L8.79779 16.5476Z" fill="#F7F7F7" stroke="#646464" stroke-width="0.5" stroke-miterlimit="10"/>
<path d="M37.0169 56.5028L28.89 51.2001L34.9124 62.5706L37.0169 56.5028Z" fill="#F7F7F7" stroke="#646464" stroke-width="0.5" stroke-miterlimit="10"/>
<path d="M27.712 48.9709L24.7206 37.0596L30.1739 43.3648L27.712 48.9709Z" fill="#F7F7F7" stroke="#646464" stroke-width="0.5" stroke-miterlimit="10"/>
<path d="M31.802 11.39L23.172 4.82101L19.6777 8.76507L31.802 11.39Z" fill="#F7F7F7" stroke="#646464" stroke-width="0.5" stroke-miterlimit="10"/>
<path d="M19.9159 24.8975L14.092 13.2896L22.6425 18.7374L19.9159 24.8975Z" fill="#F7F7F7" stroke="#646464" stroke-width="0.5" stroke-miterlimit="10"/>
<path d="M19.2012 10.4799L30.1475 13.9095L21.769 16.7191L19.2012 10.4799Z" fill="#F7F7F7" stroke="#646464" stroke-width="0.5" stroke-miterlimit="10"/>
<path d="M15.1507 20.5842L6.32214 8.36945L12.8476 9.76767L15.1507 20.5842Z" fill="#F7F7F7" stroke="#646464" stroke-width="0.5" stroke-miterlimit="10"/>
<path d="M17.4407 13.8171L11.1801 5.11118L19.2012 5.99496L17.4407 13.8171Z" fill="#F7F7F7" stroke="#646464" stroke-width="0.5" stroke-miterlimit="10"/>
<path d="M19.7836 2.06417L32.2123 1.52335L33.8801 9.14764L19.7836 2.06417Z" fill="#F7F7F7" stroke="#646464" stroke-width="0.5" stroke-miterlimit="10"/>
<path d="M1.20013 3.00064L2.52375 16.0991L5.93867 7.67019L1.20013 3.00064Z" fill="#F7F7F7" stroke="#646464" stroke-width="0.5" stroke-miterlimit="10"/>
<path d="M9.23435 23.0508L5.7003 11.2714L3.58252 20.0565L9.23435 23.0508Z" fill="#F7F7F7" stroke="#646464" stroke-width="0.5" stroke-miterlimit="10"/>
<path d="M20.8821 42.7445L26.3619 54.5107L25.6736 45.8575L20.8821 42.7445Z" fill="#F7F7F7" stroke="#646464" stroke-width="0.5" stroke-miterlimit="10"/>
<path d="M15.0317 29.2505L24.7867 43.0877L20.9615 29.3164L15.0317 29.2505Z" fill="#F7F7F7" stroke="#646464" stroke-width="0.5" stroke-miterlimit="10"/>
<path d="M1.22614 0.600067L5.92497 5.92916L12.318 3.52843L1.22614 0.600067Z" fill="#F7F7F7" stroke="#646464" stroke-width="0.5" stroke-miterlimit="10"/>
</svg>
