<svg width="64" height="75" viewBox="0 0 64 75" fill="none" xmlns="http://www.w3.org/2000/svg"><path d="M44.443 70.934c.185-1.095.556-2.797 1.363-5.092.225-.858-2.343-13.85-2.343-13.85s-9.12-4.736-9.675-3.588c-.067.923-.278 3.14-.278 3.14l1.111 4.049-1.284 4.155.199 3.957-2.409 2.638c3.666 1.32 4.447 1.834 13.316 4.59z" fill="#F8F9F9" stroke="#646464" stroke-width=".5" stroke-miterlimit="10"/><path d="M63.476 73.756c-.384-1.662-.953-3.047-1.151-4.432-2.25-8.165-7.32-18.335-8.445-21.052 4.01-8.574 5.294-24.377 3.759-36.565a19.442 19.442 0 00-.53-2.586c-7.041-2.52-25.03-3.97-25.03-3.97l-.118 2.902-3.349 1.926-1.02 3.878-3.123 1.53s-.159.54-.225.83c-1.443 5.541-2.316 11.899 1.734 18.402 4.275 7.426 10.205 18.296 11.489 19.997 1.284 1.702 5.877 7.81 8.921 13.244 1.033 1.768 1.747 3.047 2.277 4.09 4.963 1.002 5.453 1.279 14.811 1.806z" fill="#F8F9F9" stroke="#646464" stroke-width=".5" stroke-miterlimit="10"/><path d="M41.372 22.747c1.734 6.49 8.895 15.46 12.455 25.498m-.993-25.498c-.318 3.298-6.737 7.36-6.578 10.078" stroke="#646464" stroke-width=".5" stroke-miterlimit="10"/><path d="M26.984 51.873l2.237 12.637 6.645 2.532-8.882-15.17zm4.792-9.788l-2.846 7.36 9.477 5.409-6.631-12.769zM8.798 16.548l3.348 10.724 9.094.264L8.798 16.548zm28.219 39.955L28.89 51.2l6.022 11.37 2.105-6.067zm-9.305-7.533l-2.991-11.91 5.453 6.305-2.462 5.606zm4.09-37.58l-8.63-6.569-3.494 3.944 12.124 2.625zM19.916 24.898L14.092 13.29l8.55 5.447-2.726 6.16zm-.715-14.418l10.947 3.43-8.379 2.81-2.568-6.24zM15.15 20.584L6.323 8.37l6.526 1.399 2.303 10.816zm2.29-6.767l-6.26-8.706 8.021.884-1.76 7.822zm2.344-11.753l12.428-.54 1.668 7.624-14.096-7.084zM1.2 3l1.324 13.1 3.415-8.43L1.2 3zm8.034 20.05L5.7 11.272l-2.117 8.785 5.651 2.995zm11.648 19.695l5.48 11.766-.688-8.654-4.792-3.112zm-5.85-13.495l9.755 13.838-3.825-13.772-5.93-.066zM1.226.6l4.699 5.33 6.393-2.402L1.226.6z" fill="#F7F7F7" stroke="#646464" stroke-width=".5" stroke-miterlimit="10"/></svg>