<svg width="34" height="40" viewBox="0 0 34 40" fill="none" xmlns="http://www.w3.org/2000/svg"><path d="M12.782 17.53c1.098.607 2.168.888 3.395 1.21 1.786.47 3.81 1 6.544 2.636 2.427 1.45 4.023 4.681 4.081 8.232.056 3.406-1.32 6.265-3.777 7.843-2.19 1.432-5.154 2.3-8.34 2.44a20.353 20.353 0 01-10.314-2.28C1.933 36.337.812 35.668.766 35.644L0 35.183l8.702-18.357.942-1.988 6.093-12.851c-2.794-.269-5.037 1.006-5.783 1.678C7.16 6.183 6.65 9.172 8.408 12.8l-1.05 2.206c-.13-.208-.254-.421-.377-.626l-.016-.029c-2.55-4.683-1.982-8.88 1.64-12.14C10.57.443 15.46-1.33 20.22 1.442c1.916 1.144 2.806 2.713 3.55 4.717l.012.032L34 37.003l-1.9.61L21.886 6.818c-.734-1.976-1.441-2.943-2.694-3.69a9.047 9.047 0 00-1.462-.688L11.111 16.4l-.868 1.827L2.57 34.401c.57.322 1.478.817 2.732 1.472 6.028 3.149 12.922 2.35 16.616-.065 1.875-1.206 2.922-3.453 2.878-6.168-.047-2.848-1.301-5.493-3.12-6.583-2.488-1.49-4.365-1.981-6.02-2.416-1.261-.331-2.46-.645-3.726-1.322l.851-1.789z" fill="#C28767"/></svg>