<svg viewBox="0 0 1619 1775" fill="none" xmlns="http://www.w3.org/2000/svg">
<path d="M635 760C465 753 288 720 215 681L493 1277C493 1277 532 1075 879 1113C1114 1150 1395 1110.14 1509 1023C1593.28 958.582 1591 788 1493 731C1395 674 1278 661 1122 688C973 713.789 805 767 635 760Z" fill="none"/>
<path d="M1529.08 997.802C1537.24 989.51 1544.29 980.9 1550 972L1529.08 997.802C1462.96 1064.97 1323.25 1111.21 1220 1121C1104 1132 970 1125 844 1110C713 1094.4 626.381 1115.95 546 1173C465.619 1230.05 452.52 1364.33 521.644 1428.8C621 1521.46 701 1507 895 1449C1110 1419 1066 1569 1066 1569L1529.08 997.802Z" fill="none"/>
<g filter="url(#filter0_d)">
<path d="M1165.5 120C1074 131 969.015 104.485 897 87.9999C814 68.9999 602 -10.0001 281 106C-52.3084 226.447 21.9999 568.549 193 668.5C335 751.5 683 789.736 958.5 719C1177 662.899 1517.7 627 1564.5 832.5C1581.1 905.413 1575 1000.5 1431.5 1065C1322.5 1113.99 1148.54 1145.51 917.5 1116.5C587 1075 454 1184 482 1353C495.456 1434.22 579.52 1494 686 1494C805 1494 815 1443.5 943 1443.5C1082 1443.5 1102 1552.18 1037 1588C972 1623.82 943 1681.5 943 1731" stroke="url(#paint2_linear)" stroke-width="15" stroke-linejoin="round"/>
</g>
<rect x="446" y="1431" width="733" height="329" fill="url(#paint3_linear)"/>
<defs>
<filter id="filter0_d" x="0.349365" y="0.578979" width="1618.11" height="1774.42" filterUnits="userSpaceOnUse" color-interpolation-filters="sRGB">
<feFlood flood-opacity="0" result="BackgroundImageFix"/>
<feColorMatrix in="SourceAlpha" type="matrix" values="0 0 0 0 0 0 0 0 0 0 0 0 0 0 0 0 0 0 127 0"/>
<feOffset dy="4"/>
<feGaussianBlur stdDeviation="20"/>
<feColorMatrix type="matrix" values="0 0 0 0 0.760784 0 0 0 0 0.529412 0 0 0 0 0.403922 0 0 0 0.15 0"/>
<feBlend mode="normal" in2="BackgroundImageFix" result="effect1_dropShadow"/>
<feBlend mode="normal" in="SourceGraphic" in2="effect1_dropShadow" result="shape"/>
</filter>
<linearGradient id="paint0_linear" x1="1570" y1="866" x2="215" y2="976" gradientUnits="userSpaceOnUse">
<stop offset="0.502762" stop-color="#FFFAF7"/>
<stop offset="1" stop-color="#FFFAF7" stop-opacity="0"/>
</linearGradient>
<linearGradient id="paint1_linear" x1="498" y1="1204" x2="1448.67" y2="1441.28" gradientUnits="userSpaceOnUse">
<stop stop-color="#FFFAF7"/>
<stop offset="0.723986" stop-color="#FFFAF7" stop-opacity="0"/>
</linearGradient>
<linearGradient id="paint2_linear" x1="809.404" y1="44.0747" x2="809.404" y2="1731" gradientUnits="userSpaceOnUse">
<stop stop-color="#F1D6BF"/>
<stop offset="1" stop-color="#FCEEE1"/>
</linearGradient>
<linearGradient id="paint3_linear" x1="813" y1="1720.81" x2="814.867" y2="1430.99" gradientUnits="userSpaceOnUse">
<stop stop-color="white"/>
<stop offset="1" stop-color="white" stop-opacity="0"/>
</linearGradient>
</defs>
</svg>
