<svg viewBox="0 0 1619 1775" fill="none" xmlns="http://www.w3.org/2000/svg"><path d="M635 760c-170-7-347-40-420-79l278 596s39-202 386-164c235 37 516-2.86 630-90 84.28-64.418 82-235-16-292s-215-70-371-43c-149 25.789-317 79-487 72z"/><path d="M1529.08 997.802c8.16-8.292 15.21-16.902 20.92-25.802l-20.92 25.802C1462.96 1064.97 1323.25 1111.21 1220 1121c-116 11-250 4-376-11-131-15.6-217.619 5.95-298 63s-93.48 191.33-24.356 255.8C621 1521.46 701 1507 895 1449c215-30 171 120 171 120l463.08-571.198z"/><g filter="url(#filter0_d)"><path d="M1165.5 120C1074 131 969.015 104.485 897 88c-83-19-295-98-616 18-333.308 120.447-259 462.549-88 562.5 142 83 490 121.236 765.5 50.5 218.5-56.101 559.2-92 606 113.5 16.6 72.913 10.5 168-133 232.5-109 48.99-282.96 80.51-514 51.5C587 1075 454 1184 482 1353c13.456 81.22 97.52 141 204 141 119 0 129-50.5 257-50.5 139 0 159 108.68 94 144.5-65 35.82-94 93.5-94 143" stroke="url(#paint2_linear)" stroke-width="15" stroke-linejoin="round"/></g><path fill="url(#paint3_linear)" d="M446 1431h733v329H446z"/><defs><linearGradient id="paint0_linear" x1="1570" y1="866" x2="215" y2="976" gradientUnits="userSpaceOnUse"><stop offset=".503" stop-color="#FFFAF7"/><stop offset="1" stop-color="#FFFAF7" stop-opacity="0"/></linearGradient><linearGradient id="paint1_linear" x1="498" y1="1204" x2="1448.67" y2="1441.28" gradientUnits="userSpaceOnUse"><stop stop-color="#FFFAF7"/><stop offset=".724" stop-color="#FFFAF7" stop-opacity="0"/></linearGradient><linearGradient id="paint2_linear" x1="809.404" y1="44.075" x2="809.404" y2="1731" gradientUnits="userSpaceOnUse"><stop stop-color="#F1D6BF"/><stop offset="1" stop-color="#FCEEE1"/></linearGradient><linearGradient id="paint3_linear" x1="813" y1="1720.81" x2="814.867" y2="1430.99" gradientUnits="userSpaceOnUse"><stop stop-color="#fff"/><stop offset="1" stop-color="#fff" stop-opacity="0"/></linearGradient><filter id="filter0_d" x=".349" y=".579" width="1618.11" height="1774.42" filterUnits="userSpaceOnUse" color-interpolation-filters="sRGB"><feFlood flood-opacity="0" result="BackgroundImageFix"/><feColorMatrix in="SourceAlpha" values="0 0 0 0 0 0 0 0 0 0 0 0 0 0 0 0 0 0 127 0"/><feOffset dy="4"/><feGaussianBlur stdDeviation="20"/><feColorMatrix values="0 0 0 0 0.760784 0 0 0 0 0.529412 0 0 0 0 0.403922 0 0 0 0.15 0"/><feBlend in2="BackgroundImageFix" result="effect1_dropShadow"/><feBlend in="SourceGraphic" in2="effect1_dropShadow" result="shape"/></filter></defs></svg>